<svg xmlns="http://www.w3.org/2000/svg" viewBox="0 0 17 20">
    <g id="bag" transform="matrix(1,0,0,1,0,-10.1288)">
        <path d="M14.5,14L12.712,14C12.528,11.823 10.685,10.129 8.5,10.129C6.315,10.129 4.472,11.823 4.288,14L2.5,14C1.129,14 -0,15.129 0,16.5L0,27.5C0,28.871 1.129,30 2.5,30L14.5,30C15.871,30 17,28.871 17,27.5L17,16.5C17,15.129 15.871,14 14.5,14ZM8.5,11.125C10.137,11.13 11.526,12.374 11.712,14L5.288,14C5.474,12.374 6.863,11.13 8.5,11.125ZM16,27.5C16,28.323 15.323,29 14.5,29L2.5,29C1.677,29 1,28.323 1,27.5L1,16.5C1,15.677 1.677,15 2.5,15L14.5,15C15.323,15 16,15.677 16,16.5L16,27.5Z" fill="#fff"/>
    </g>
</svg>