<?xml version="1.0" encoding="UTF-8" standalone="no"?>
<!DOCTYPE svg PUBLIC "-//W3C//DTD SVG 1.1//EN" "http://www.w3.org/Graphics/SVG/1.1/DTD/svg11.dtd">
<svg width="100%" height="100%" viewBox="0 0 178 178" version="1.1" xmlns="http://www.w3.org/2000/svg" xmlns:xlink="http://www.w3.org/1999/xlink" xml:space="preserve" xmlns:serif="http://www.serif.com/" style="fill-rule:evenodd;clip-rule:evenodd;stroke-linejoin:round;stroke-miterlimit:2;">
    <g transform="matrix(0.449199,0,0,0.449199,-1029.97,-620.352)">
        <path d="M2509,1582C2509,1582 2584.55,1643.34 2524,1725C2535.57,1728.49 2537.68,1730.28 2550.09,1731.77C2562.3,1730.78 2601.05,1727.54 2623,1692C2637.87,1671.84 2637.28,1639.41 2632,1630C2620.85,1634.73 2607.17,1640.95 2607.17,1640.95L2601,1625L2624,1612C2624,1612 2609.43,1585.86 2592.33,1578.23C2575.23,1570.6 2568.16,1570.4 2564,1570C2559.84,1569.6 2539.64,1568.7 2522,1576C2504.36,1583.3 2509,1582 2509,1582Z" style="fill:rgb(27,145,221);"/>
        <g transform="matrix(0.309017,-0.951057,0.951057,0.309017,218.137,3463.53)">
            <path d="M2509,1582C2509,1582 2584.55,1643.34 2524,1725C2535.57,1728.49 2537.68,1730.28 2550.09,1731.77C2562.3,1730.78 2601.05,1727.54 2623,1692C2637.87,1671.84 2637.28,1639.41 2632,1630C2620.85,1634.73 2607.17,1640.95 2607.17,1640.95L2601,1625L2624,1612C2624,1612 2609.43,1585.86 2592.33,1578.23C2575.23,1570.6 2568.16,1570.4 2564,1570C2559.84,1569.6 2539.64,1568.7 2522,1576C2504.36,1583.3 2509,1582 2509,1582Z" style="fill:rgb(242,220,13);"/>
        </g>
        <g transform="matrix(-0.809017,-0.587785,0.587785,-0.809017,3580.91,4328.93)">
            <path d="M2509,1582C2509,1582 2584.55,1643.34 2524,1725C2535.57,1728.49 2537.68,1730.28 2550.09,1731.77C2562.3,1730.78 2601.05,1727.54 2623,1692C2637.87,1671.84 2637.28,1639.41 2632,1630C2620.85,1634.73 2607.17,1640.95 2607.17,1640.95L2601,1625L2624,1612C2624,1612 2609.43,1585.86 2592.33,1578.23C2575.23,1570.6 2568.16,1570.4 2564,1570C2559.84,1569.6 2539.64,1568.7 2522,1576C2504.36,1583.3 2509,1582 2509,1582Z" style="fill:rgb(229,95,141);"/>
        </g>
        <g transform="matrix(-0.809017,0.587785,-0.587785,-0.809017,5440.16,1398.07)">
            <path d="M2509,1582C2509,1582 2584.55,1643.34 2524,1725C2535.57,1728.49 2537.68,1730.28 2550.09,1731.77C2562.3,1730.78 2601.05,1727.54 2623,1692C2637.87,1671.84 2637.28,1639.41 2632,1630C2620.85,1634.73 2607.17,1640.95 2607.17,1640.95L2601,1625L2624,1612C2624,1612 2609.43,1585.86 2592.33,1578.23C2575.23,1570.6 2568.16,1570.4 2564,1570C2559.84,1569.6 2539.64,1568.7 2522,1576C2504.36,1583.3 2509,1582 2509,1582Z" style="fill:rgb(164,202,231);"/>
        </g>
        <g transform="matrix(0.309017,0.951057,-0.951057,0.309017,3227.87,-1276.2)">
            <path d="M2509,1582C2509,1582 2584.55,1643.34 2524,1725C2535.57,1728.49 2537.68,1730.28 2550.09,1731.77C2562.3,1730.78 2601.05,1727.54 2623,1692C2637.87,1671.84 2637.28,1639.41 2632,1630C2620.85,1634.73 2607.17,1640.95 2607.17,1640.95L2601,1625L2624,1612C2624,1612 2609.43,1585.86 2592.33,1578.23C2575.23,1570.6 2568.16,1570.4 2564,1570C2559.84,1569.6 2539.64,1568.7 2522,1576C2504.36,1583.3 2509,1582 2509,1582Z" style="fill:rgb(197,149,198);"/>
        </g>
    </g>
</svg>
