<?xml version="1.0" encoding="UTF-8" standalone="no"?>
<!DOCTYPE svg PUBLIC "-//W3C//DTD SVG 1.1//EN" "http://www.w3.org/Graphics/SVG/1.1/DTD/svg11.dtd">
<svg width="100%" height="100%" viewBox="0 0 945 237" version="1.1" xmlns="http://www.w3.org/2000/svg" xmlns:xlink="http://www.w3.org/1999/xlink" xml:space="preserve" xmlns:serif="http://www.serif.com/" style="fill-rule:evenodd;clip-rule:evenodd;stroke-linejoin:round;stroke-miterlimit:2;">
    <g transform="matrix(1,0,0,1,-75.8923,-211.961)">
        <g transform="matrix(0.449199,0,0,0.449199,-938.812,-378.863)">
            <path d="M2509,1582C2509,1582 2584.55,1643.34 2524,1725C2535.57,1728.49 2537.68,1730.28 2550.09,1731.77C2562.3,1730.78 2601.05,1727.54 2623,1692C2637.87,1671.84 2637.28,1639.41 2632,1630C2620.85,1634.73 2607.17,1640.95 2607.17,1640.95L2601,1625L2624,1612C2624,1612 2609.43,1585.86 2592.33,1578.23C2575.23,1570.6 2568.16,1570.4 2564,1570C2559.84,1569.6 2539.64,1568.7 2522,1576C2504.36,1583.3 2509,1582 2509,1582Z" style="fill:rgb(27,145,221);"/>
            <g transform="matrix(0.309017,-0.951057,0.951057,0.309017,218.137,3463.53)">
                <path d="M2509,1582C2509,1582 2584.55,1643.34 2524,1725C2535.57,1728.49 2537.68,1730.28 2550.09,1731.77C2562.3,1730.78 2601.05,1727.54 2623,1692C2637.87,1671.84 2637.28,1639.41 2632,1630C2620.85,1634.73 2607.17,1640.95 2607.17,1640.95L2601,1625L2624,1612C2624,1612 2609.43,1585.86 2592.33,1578.23C2575.23,1570.6 2568.16,1570.4 2564,1570C2559.84,1569.6 2539.64,1568.7 2522,1576C2504.36,1583.3 2509,1582 2509,1582Z" style="fill:rgb(242,220,13);"/>
            </g>
            <g transform="matrix(-0.809017,-0.587785,0.587785,-0.809017,3580.91,4328.93)">
                <path d="M2509,1582C2509,1582 2584.55,1643.34 2524,1725C2535.57,1728.49 2537.68,1730.28 2550.09,1731.77C2562.3,1730.78 2601.05,1727.54 2623,1692C2637.87,1671.84 2637.28,1639.41 2632,1630C2620.85,1634.73 2607.17,1640.95 2607.17,1640.95L2601,1625L2624,1612C2624,1612 2609.43,1585.86 2592.33,1578.23C2575.23,1570.6 2568.16,1570.4 2564,1570C2559.84,1569.6 2539.64,1568.7 2522,1576C2504.36,1583.3 2509,1582 2509,1582Z" style="fill:rgb(229,95,141);"/>
            </g>
            <g transform="matrix(-0.809017,0.587785,-0.587785,-0.809017,5440.16,1398.07)">
                <path d="M2509,1582C2509,1582 2584.55,1643.34 2524,1725C2535.57,1728.49 2537.68,1730.28 2550.09,1731.77C2562.3,1730.78 2601.05,1727.54 2623,1692C2637.87,1671.84 2637.28,1639.41 2632,1630C2620.85,1634.73 2607.17,1640.95 2607.17,1640.95L2601,1625L2624,1612C2624,1612 2609.43,1585.86 2592.33,1578.23C2575.23,1570.6 2568.16,1570.4 2564,1570C2559.84,1569.6 2539.64,1568.7 2522,1576C2504.36,1583.3 2509,1582 2509,1582Z" style="fill:rgb(164,202,231);"/>
            </g>
            <g transform="matrix(0.309017,0.951057,-0.951057,0.309017,3227.87,-1276.2)">
                <path d="M2509,1582C2509,1582 2584.55,1643.34 2524,1725C2535.57,1728.49 2537.68,1730.28 2550.09,1731.77C2562.3,1730.78 2601.05,1727.54 2623,1692C2637.87,1671.84 2637.28,1639.41 2632,1630C2620.85,1634.73 2607.17,1640.95 2607.17,1640.95L2601,1625L2624,1612C2624,1612 2609.43,1585.86 2592.33,1578.23C2575.23,1570.6 2568.16,1570.4 2564,1570C2559.84,1569.6 2539.64,1568.7 2522,1576C2504.36,1583.3 2509,1582 2509,1582Z" style="fill:rgb(197,149,198);"/>
            </g>
        </g>
        <g transform="matrix(1,0,0,1,-19.599,-3.47866)">
            <g transform="matrix(1,0,0,1,-8.4956,-45.7081)">
                <g transform="matrix(50,0,0,50,341.415,465.799)">
                    <path d="M0.282,0.01C0.43,0.01 0.523,-0.094 0.523,-0.206C0.523,-0.342 0.415,-0.383 0.314,-0.418C0.229,-0.447 0.148,-0.469 0.148,-0.546C0.148,-0.609 0.2,-0.654 0.279,-0.654C0.346,-0.654 0.396,-0.628 0.431,-0.575L0.51,-0.634C0.455,-0.698 0.387,-0.74 0.279,-0.74C0.147,-0.74 0.049,-0.654 0.049,-0.544C0.049,-0.412 0.155,-0.372 0.254,-0.34C0.342,-0.313 0.423,-0.286 0.423,-0.206C0.423,-0.134 0.366,-0.081 0.281,-0.081C0.205,-0.081 0.146,-0.118 0.102,-0.186L0.017,-0.12C0.077,-0.041 0.159,0.01 0.282,0.01Z" style="fill-rule:nonzero;"/>
                </g>
                <g transform="matrix(50,0,0,50,409.515,465.799)">
                    <path d="M0.413,0.01C0.621,0.01 0.788,-0.158 0.788,-0.365C0.788,-0.572 0.621,-0.74 0.413,-0.74C0.206,-0.74 0.039,-0.572 0.039,-0.365C0.039,-0.158 0.206,0.01 0.413,0.01ZM0.413,-0.084C0.258,-0.084 0.137,-0.211 0.137,-0.365C0.137,-0.52 0.258,-0.646 0.413,-0.646C0.569,-0.646 0.691,-0.52 0.691,-0.365C0.691,-0.211 0.569,-0.084 0.413,-0.084Z" style="fill-rule:nonzero;"/>
                </g>
                <g transform="matrix(50,0,0,50,490.865,465.799)">
                    <path d="M0.06,-0L0.156,-0L0.156,-0.32L0.473,-0.32L0.473,-0.412L0.156,-0.412L0.156,-0.638L0.473,-0.638L0.473,-0.73L0.06,-0.73L0.06,-0Z" style="fill-rule:nonzero;"/>
                </g>
                <g transform="matrix(50,0,0,50,557.065,465.799)">
                    <path d="M0.251,-0L0.347,-0L0.347,-0.639L0.559,-0.639L0.559,-0.73L0.039,-0.73L0.039,-0.639L0.251,-0.639L0.251,-0Z" style="fill-rule:nonzero;"/>
                </g>
                <g transform="matrix(50,0,0,50,627.415,465.799)">
                    <path d="M0.24,-0L0.339,-0L0.525,-0.579L0.709,-0L0.806,-0L1.023,-0.73L0.924,-0.73L0.757,-0.151L0.573,-0.73L0.478,-0.73L0.293,-0.152L0.131,-0.73L0.029,-0.73L0.24,-0Z" style="fill-rule:nonzero;"/>
                </g>
                <g transform="matrix(50,0,0,50,713.965,465.799)">
                    <path d="M0.027,-0L0.129,-0L0.19,-0.167L0.506,-0.167L0.568,-0L0.669,-0L0.399,-0.73L0.298,-0.73L0.027,-0ZM0.348,-0.597L0.472,-0.26L0.224,-0.26L0.348,-0.597Z" style="fill-rule:nonzero;"/>
                </g>
                <g transform="matrix(50,0,0,50,788.765,465.799)">
                    <path d="M0.06,-0L0.155,-0L0.155,-0.254L0.306,-0.254L0.45,-0L0.559,-0L0.399,-0.276C0.487,-0.313 0.548,-0.397 0.548,-0.494C0.548,-0.627 0.445,-0.73 0.294,-0.73L0.06,-0.73L0.06,-0ZM0.284,-0.64C0.392,-0.64 0.45,-0.581 0.45,-0.494C0.45,-0.422 0.393,-0.343 0.283,-0.343L0.155,-0.343L0.155,-0.64L0.284,-0.64Z" style="fill-rule:nonzero;"/>
                </g>
                <g transform="matrix(50,0,0,50,858.415,465.799)">
                    <path d="M0.06,-0L0.5,-0L0.5,-0.093L0.156,-0.093L0.156,-0.32L0.5,-0.32L0.5,-0.412L0.156,-0.412L0.156,-0.638L0.5,-0.638L0.5,-0.73L0.06,-0.73L0.06,-0Z" style="fill-rule:nonzero;"/>
                </g>
            </g>
            <g transform="matrix(1,0,0,1,21.5848,0.736146)">
                <g transform="matrix(150,0,0,150,299.278,359.917)">
                    <path d="M0.386,0.012C0.556,0.012 0.688,-0.125 0.688,-0.292C0.688,-0.46 0.558,-0.597 0.386,-0.597C0.291,-0.597 0.187,-0.545 0.142,-0.454L0.142,-0.74L0.086,-0.74L0.086,-0L0.141,-0L0.141,-0.132C0.187,-0.04 0.29,0.012 0.386,0.012ZM0.384,-0.041C0.243,-0.041 0.135,-0.152 0.135,-0.292C0.135,-0.431 0.243,-0.544 0.384,-0.544C0.521,-0.544 0.629,-0.432 0.629,-0.292C0.629,-0.152 0.521,-0.041 0.384,-0.041Z" style="fill-rule:nonzero;"/>
                </g>
                <g transform="matrix(150,0,0,150,411.178,359.917)">
                    <rect x="0.086" y="-0.74" width="0.058" height="0.74" style="fill-rule:nonzero;"/>
                </g>
                <g transform="matrix(150,0,0,150,445.828,359.917)">
                    <path d="M0.366,0.012C0.506,0.012 0.595,-0.053 0.647,-0.172L0.596,-0.196C0.557,-0.099 0.481,-0.04 0.366,-0.04C0.219,-0.04 0.122,-0.139 0.114,-0.273L0.661,-0.273L0.661,-0.299C0.661,-0.472 0.534,-0.597 0.363,-0.597C0.189,-0.597 0.059,-0.463 0.059,-0.29C0.059,-0.12 0.177,0.012 0.366,0.012ZM0.363,-0.545C0.497,-0.545 0.592,-0.455 0.603,-0.326L0.116,-0.326C0.132,-0.451 0.234,-0.545 0.363,-0.545Z" style="fill-rule:nonzero;"/>
                </g>
                <g transform="matrix(150,0,0,150,554.128,359.917)">
                    <path d="M0.267,0.012C0.416,0.012 0.484,-0.079 0.484,-0.162C0.484,-0.272 0.384,-0.302 0.287,-0.326C0.203,-0.347 0.122,-0.367 0.122,-0.439C0.122,-0.502 0.174,-0.548 0.266,-0.548C0.337,-0.548 0.387,-0.523 0.427,-0.478L0.47,-0.513C0.423,-0.566 0.35,-0.598 0.266,-0.598C0.143,-0.598 0.065,-0.523 0.065,-0.438C0.065,-0.33 0.161,-0.302 0.257,-0.278C0.342,-0.257 0.427,-0.238 0.427,-0.162C0.427,-0.097 0.374,-0.039 0.268,-0.039C0.188,-0.039 0.121,-0.08 0.082,-0.133L0.037,-0.097C0.084,-0.033 0.167,0.012 0.267,0.012Z" style="fill-rule:nonzero;"/>
                </g>
                <g transform="matrix(150,0,0,150,635.428,359.917)">
                    <path d="M0.267,0.012C0.416,0.012 0.484,-0.079 0.484,-0.162C0.484,-0.272 0.384,-0.302 0.287,-0.326C0.203,-0.347 0.122,-0.367 0.122,-0.439C0.122,-0.502 0.174,-0.548 0.266,-0.548C0.337,-0.548 0.387,-0.523 0.427,-0.478L0.47,-0.513C0.423,-0.566 0.35,-0.598 0.266,-0.598C0.143,-0.598 0.065,-0.523 0.065,-0.438C0.065,-0.33 0.161,-0.302 0.257,-0.278C0.342,-0.257 0.427,-0.238 0.427,-0.162C0.427,-0.097 0.374,-0.039 0.268,-0.039C0.188,-0.039 0.121,-0.08 0.082,-0.133L0.037,-0.097C0.084,-0.033 0.167,0.012 0.267,0.012Z" style="fill-rule:nonzero;"/>
                </g>
                <g transform="matrix(150,0,0,150,716.728,359.917)">
                    <path d="M0.085,-0L0.142,-0L0.142,-0.585L0.085,-0.585L0.085,-0ZM0.065,-0.713C0.065,-0.685 0.083,-0.664 0.114,-0.664C0.145,-0.664 0.163,-0.685 0.163,-0.713C0.163,-0.741 0.145,-0.761 0.114,-0.761C0.086,-0.761 0.065,-0.741 0.065,-0.713Z" style="fill-rule:nonzero;"/>
                </g>
                <g transform="matrix(150,0,0,150,750.928,359.917)">
                    <path d="M0.085,-0L0.142,-0L0.142,-0.328C0.142,-0.451 0.235,-0.544 0.358,-0.544C0.489,-0.544 0.568,-0.459 0.568,-0.329L0.568,-0L0.625,-0L0.625,-0.328C0.625,-0.495 0.521,-0.597 0.365,-0.597C0.261,-0.597 0.179,-0.543 0.14,-0.466L0.14,-0.585L0.085,-0.585L0.085,-0Z" style="fill-rule:nonzero;"/>
                </g>
                <g transform="matrix(150,0,0,150,856.978,359.917)">
                    <path d="M0.361,0.012C0.457,0.012 0.56,-0.04 0.606,-0.134L0.606,-0.01C0.606,0.137 0.515,0.231 0.37,0.231C0.255,0.231 0.192,0.181 0.149,0.098L0.094,0.123C0.15,0.223 0.226,0.283 0.37,0.283C0.546,0.283 0.662,0.169 0.662,-0.012L0.662,-0.585L0.606,-0.585L0.606,-0.45C0.56,-0.544 0.457,-0.597 0.361,-0.597C0.189,-0.597 0.059,-0.46 0.059,-0.292C0.059,-0.125 0.189,0.012 0.361,0.012ZM0.363,-0.041C0.226,-0.041 0.117,-0.152 0.117,-0.292C0.117,-0.432 0.226,-0.544 0.363,-0.544C0.503,-0.544 0.612,-0.431 0.612,-0.292C0.612,-0.152 0.503,-0.041 0.363,-0.041Z" style="fill-rule:nonzero;"/>
                </g>
            </g>
        </g>
        <g transform="matrix(1,0,0,1,507.57,-249.802)">
            <g transform="matrix(20.8333,0,0,20.8333,455.683,534.495)">
                <path d="M0.251,-0L0.347,-0L0.347,-0.639L0.559,-0.639L0.559,-0.73L0.039,-0.73L0.039,-0.639L0.251,-0.639L0.251,-0Z" style="fill-rule:nonzero;"/>
            </g>
            <g transform="matrix(20.8333,0,0,20.8333,468.121,534.495)">
                <path d="M0.06,-0L0.156,-0L0.156,-0.57L0.414,-0.217L0.679,-0.575L0.679,-0L0.775,-0L0.775,-0.73L0.679,-0.73L0.679,-0.724L0.416,-0.371L0.157,-0.73L0.06,-0.73L0.06,-0Z" style="fill-rule:nonzero;"/>
            </g>
        </g>
    </g>
</svg>
