<?xml version="1.0" encoding="UTF-8" standalone="no"?>
<!DOCTYPE svg PUBLIC "-//W3C//DTD SVG 1.1//EN" "http://www.w3.org/Graphics/SVG/1.1/DTD/svg11.dtd">
<svg width="100%" height="100%" viewBox="0 0 67 67" version="1.1" xmlns="http://www.w3.org/2000/svg" xmlns:xlink="http://www.w3.org/1999/xlink" xml:space="preserve" xmlns:serif="http://www.serif.com/" style="fill-rule:evenodd;clip-rule:evenodd;stroke-linejoin:round;stroke-miterlimit:2;">
    <rect id="画板1" x="0" y="0" width="66.3" height="66.3" style="fill:none;"/>
    <clipPath id="_clip1">
        <rect id="画板11" serif:id="画板1" x="0" y="0" width="66.3" height="66.3"/>
    </clipPath>
    <g clip-path="url(#_clip1)">
        <g transform="matrix(-2.75546e-16,-1.5,-1.5,2.75546e-16,81.3439,802.65)">
            <path d="M512,18.809L505.684,24.73L504.316,23.27L513.001,15.129C515.895,17.843 518.79,20.557 521.684,23.271L520.316,24.729L514.001,18.808L514.001,49.129L512,49.129L512,18.809Z" style="fill:rgb(201,201,206);"/>
        </g>
        <g transform="matrix(1.5,1.10934e-31,1.84889e-32,1.5,-283.8,-99)">
            <path d="M211.3,68C222.4,68 231.4,77 231.4,88.1C231.4,99.2 222.4,108.2 211.3,108.2C200.2,108.2 191.2,99.2 191.2,88.1C191.1,77 200.2,68 211.3,68M211.3,66C199.1,66 189.2,75.9 189.2,88.1C189.2,100.3 199.1,110.2 211.3,110.2C223.5,110.2 233.4,100.3 233.4,88.1C233.4,75.9 223.5,66 211.3,66Z" style="fill:rgb(201,201,206);fill-rule:nonzero;"/>
        </g>
    </g>
</svg>
