<svg xmlns="http://www.w3.org/2000/svg" viewBox="0 0 18 18">
    <g transform="matrix(0.999614,0,0,0.999781,-0.283499,-12.9677)">
        <path d="M17.512,29.417L12.726,24.629C13.819,23.35 14.42,21.721 14.42,20.039C14.42,16.161 11.229,12.971 7.352,12.971C3.474,12.971 0.284,16.161 0.284,20.039C0.284,23.916 3.474,27.107 7.352,27.107C9.037,27.107 10.669,26.503 11.949,25.407L16.734,30.195C16.838,30.309 16.986,30.374 17.14,30.374C17.442,30.374 17.69,30.126 17.69,29.824C17.69,29.67 17.625,29.522 17.511,29.418L17.512,29.417ZM1.427,20.054C1.431,16.795 4.114,14.116 7.373,14.116C10.635,14.116 13.319,16.8 13.319,20.062C13.319,23.324 10.635,26.008 7.373,26.008C4.11,26.002 1.429,23.317 1.427,20.054Z" fill="#fff"/>
    </g>
</svg>
